<svg id="Layer_1" data-name="Layer 1" xmlns="http://www.w3.org/2000/svg" viewBox="0 0 770.71 705.54"><defs><style>.cls-1,.cls-2{fill:#fff;}.cls-1{stroke:#fff;stroke-miterlimit:10;stroke-width:20px;}</style></defs><line class="cls-1" x1="162.16" x2="162.16" y2="705.54"/><line class="cls-1" x1="254.31" y1="705.54" x2="254.31" y2="29.3"/><line class="cls-1" x1="84.71" y1="67.1" x2="723.51" y2="67.1"/><line class="cls-1" y1="199.81" x2="569.05" y2="199.81"/><path class="cls-2" d="M1221.28,421.28q-32.71-61.77-90.92-91.87T946.5,299.32H774.28V354.2H949q92.44,0,135.65,24.45t64.31,76q21.1,51.54,21.11,123.12T1147,696.65q-23.12,47.29-66.72,69.45T951,788.24H855.37v0l-81.09.49v60.07H957.74q117.62,0,177.44-35.75t89.32-96.83Q1254,655.12,1254,571.93,1254,483.07,1221.28,421.28Z" transform="translate(-483.29 -191.94)"/></svg>